<?xml version="1.0" encoding="utf-8"?>
<!-- Generator: Adobe Illustrator 24.1.2, SVG Export Plug-In . SVG Version: 6.00 Build 0)  -->
<svg version="1.1" xmlns="http://www.w3.org/2000/svg" xmlns:xlink="http://www.w3.org/1999/xlink" x="0px" y="0px"
	 viewBox="0 0 256.35 427.26" style="enable-background:new 0 0 256.35 427.26;" xml:space="preserve">
<style type="text/css">
	.st0{opacity:0.2;fill:#FFFFFF;}
	.st1{opacity:0.5;fill:#FFFFFF;}
	.st2{opacity:0.7;fill:#FFFFFF;}
</style>
<g id="contenid">
</g>
<g id="bolitas">
	<g>
		
			<ellipse transform="matrix(0.1602 -0.9871 0.9871 0.1602 141.4293 194.714)" class="st0" cx="185.14" cy="14.24" rx="14.24" ry="14.24"/>
		<circle class="st0" cx="185.14" cy="71.21" r="8.44"/>
		
			<ellipse transform="matrix(0.9239 -0.3827 0.3827 0.9239 -34.9578 80.6084)" class="st0" cx="185.14" cy="128.18" rx="14.24" ry="14.24"/>
		<circle class="st0" cx="128.18" cy="185.14" r="11.6"/>
		<circle class="st0" cx="185.14" cy="185.14" r="11.6"/>
		<circle class="st1" cx="128.18" cy="242.11" r="14.24"/>
		<circle class="st0" cx="185.14" cy="242.11" r="14.24"/>
		
			<ellipse transform="matrix(0.7071 -0.7071 0.7071 0.7071 -173.9387 178.2328)" class="st1" cx="128.18" cy="299.08" rx="14.24" ry="14.24"/>
		
			<ellipse transform="matrix(0.9239 -0.3827 0.3827 0.9239 -100.3592 93.6175)" class="st0" cx="185.14" cy="299.08" rx="14.24" ry="14.24"/>
		
			<ellipse transform="matrix(0.7071 -0.7071 0.7071 0.7071 -230.9062 154.6361)" class="st1" cx="71.21" cy="356.05" rx="14.24" ry="14.24"/>
		
			<ellipse transform="matrix(0.2298 -0.9732 0.9732 0.2298 -247.7942 398.9913)" class="st1" cx="128.18" cy="356.05" rx="14.24" ry="14.24"/>
		<circle class="st1" cx="185.14" cy="356.05" r="11.6"/>
		
			<ellipse transform="matrix(0.7071 -0.7071 0.7071 0.7071 -287.8736 131.0395)" class="st2" cx="14.24" cy="413.01" rx="14.24" ry="14.24"/>
		
			<ellipse transform="matrix(0.7071 -0.7071 0.7071 0.7071 -271.1882 171.3215)" class="st2" cx="71.21" cy="413.01" rx="14.24" ry="14.24"/>
		<circle class="st1" cx="128.18" cy="413.01" r="11.6"/>
		
			<ellipse transform="matrix(0.1602 -0.9871 0.9871 0.1602 -252.1935 529.6097)" class="st1" cx="185.14" cy="413.01" rx="14.24" ry="14.24"/>
		
			<ellipse transform="matrix(0.2298 -0.9732 0.9732 0.2298 117.1814 290.4837)" class="st0" cx="242.11" cy="71.21" rx="14.24" ry="14.24"/>
		<circle class="st0" cx="242.11" cy="128.18" r="8.44"/>
		
			<ellipse transform="matrix(0.7071 -0.7071 0.7071 0.7071 -60.0039 225.4262)" class="st0" cx="242.11" cy="185.14" rx="14.24" ry="14.24"/>
		<circle class="st0" cx="242.11" cy="242.11" r="14.24"/>
		<circle class="st1" cx="242.11" cy="299.08" r="11.6"/>
		
			<ellipse transform="matrix(0.7071 -0.7071 0.7071 0.7071 -180.8501 275.4823)" class="st1" cx="242.11" cy="356.05" rx="14.24" ry="14.24"/>
		
			<ellipse transform="matrix(0.7071 -0.7071 0.7071 0.7071 -221.1321 292.1677)" class="st1" cx="242.11" cy="413.01" rx="14.24" ry="14.24"/>
	</g>
</g>
<g id="barra_izq">
</g>
<g id="menu">
</g>
</svg>
